# xmcd
#
# Track frame offsets:
#	150
#	19710
#	31265
#	43605
#	59937
#	78097
#	104255
#	121532
#	135535
#
# Disc length: 2082 seconds
#
# Revision: 1
# Processed by: cddbd v1.5.1PL0 Copyright (c) Steve Scherf et al.
# Submitted via: audiograbber 1.82.02
#
DISCID=6a082009
DTITLE=Pierce Arrow - Pierce Arrow
DYEAR=2001
DGENRE=Country
TTITLE0=How Sweet It Is
TTITLE1=Flowers On The Wall
TTITLE2=Elvira
TTITLE3=Mary Did You Know?
TTITLE4=Trumpet of Jesus
TTITLE5=Butterfly Kisses
TTITLE6=How Great Thou Art
TTITLE7=Heaven Bound
TTITLE8=God Must Have Spent A Little More Time On You
EXTD=
EXTT0=
EXTT1=
EXTT2=
EXTT3=
EXTT4=
EXTT5=
EXTT6=
EXTT7=
EXTT8=
PLAYORDER=
